<svg width="64" height="130" viewBox="0 0 64 130" fill="none" xmlns="http://www.w3.org/2000/svg">
<path d="M30.1568 0.0914219C30.8612 0.00684398 31.7992 -0.0185812 32.509 0.0132018C48.5006 0.729201 58.7836 13.3214 58.4465 28.5495C67.0673 33.2841 65.3375 46.6359 55.4326 43.6203C54.8993 46.2203 53.9399 48.6105 53.3746 51.0559C52.383 55.3441 51.2916 59.4388 50.2001 63.6818L39.211 106.386C38.0553 110.8 37.4347 115.53 36.0223 119.959C35.0949 122.863 35.127 127.046 33.4542 129.695C31.9294 130.746 31.0146 128.839 30.6918 127.659C29.4987 123.321 28.5594 118.917 27.3766 114.577C23.4147 100.167 19.5938 85.718 15.9142 71.2338C14.3596 65.0909 12.4944 58.9338 11.0311 52.7423C10.3117 49.6977 9.28215 46.4071 8.81954 43.3381C6.73281 44.2669 4.70457 44.6327 2.91638 43.1453C-2.69716 38.4757 0.66361 31.8978 5.67383 28.5285C5.79617 27.0524 5.91084 23.1754 6.13216 21.9083C8.20017 10.0593 17.7999 1.38746 30.1568 0.0914219Z" fill="#333333"/>
<path d="M14.0433 9.84609C18.0042 5.37229 24.4577 2.75338 30.3457 2.16363C39.9671 1.20008 49.1247 6.97274 53.337 15.3903C55.8748 19.8604 56.3991 22.8559 56.2725 27.822C53.9184 27.3814 51.2719 26.9748 48.9054 27.5767C47.2771 28.1199 43.7246 29.616 43.9137 31.6204C44.2151 32.187 44.1776 32.1628 44.6894 32.5458C45.5651 32.5506 47.4269 30.219 48.7448 29.8248C54.0861 28.2256 60.2512 30.3519 61.6726 36.2024C62.3859 39.8926 60.0479 43.4347 56.367 41.2531C55.206 40.5654 54.9671 38.4755 52.8484 38.4664C49.18 38.4509 48.1385 42.25 45.5009 43.5012C44.1562 44.294 42.5084 44.9265 40.9461 44.8469C37.6184 44.8589 36.4199 41.9965 34.5509 40.1751C30.4171 36.147 27.9565 40.6445 25.555 43.5334C24.5742 44.713 22.6369 44.8262 21.2858 44.7913C18.0921 44.8253 16.7155 41.9949 14.8239 40.1562C10.0948 35.5599 9.17222 41.9232 5.70408 42.1007C3.52212 42.2122 1.88499 38.8399 2.12253 36.6319C2.12093 35.5013 2.81947 34.5453 3.36946 33.5864C5.31441 30.1958 10.5766 27.9735 14.1641 30.2975C15.2591 30.746 16.1615 32.0753 17.3428 31.8441C19.0047 29.7155 13.7607 27.3657 12.1801 27.4334C8.56927 27.5879 7.08817 28.2744 7.94151 23.8354C8.59066 20.4593 9.34343 17.218 11.2154 14.2443C11.922 13.1349 12.3964 11.0392 13.5385 10.4849C14.2206 10.3581 14.6873 10.7003 15.325 11.0214C14.9241 10.6479 14.4566 10.1901 14.0433 9.84609Z" fill="#FAF7F2"/>
<path d="M14.0435 9.84609C18.0043 5.37229 24.4578 2.75338 30.3458 2.16363C39.9672 1.20008 49.1248 6.97274 53.3372 15.3903C52.0103 15.4319 50.4409 13.9724 49.5118 13.1012C48.1261 10.4879 42.9454 7.77985 40.1919 6.63743C36.3523 5.04422 29.5986 4.82634 25.6513 6.23256C24.1265 6.77569 22.5022 8.48526 20.6403 9.19119C20.148 8.90885 19.8111 8.63869 19.2538 8.63092C18.659 9.33774 19.1255 11.6296 17.1697 12.2694C16.5505 11.7916 15.9816 11.4398 15.3252 11.0214C14.9243 10.6479 14.4567 10.1901 14.0435 9.84609Z" fill="#FCFBF5"/>
<path d="M45.5009 43.5012C45.2762 42.3029 47.3378 38.6203 47.7587 37.0686C49.1069 32.1056 54.3287 31.1481 58.3395 33.8188C59.4273 34.5434 60.2709 35.4489 61.3213 36.2265L61.6726 36.2025C62.386 39.8926 60.048 43.4347 56.3671 41.2531C55.2061 40.5654 54.9671 38.4755 52.8485 38.4665C49.1801 38.4509 48.1386 42.2501 45.5009 43.5012Z" fill="#FFFEFC"/>
<path d="M49.5118 13.1012C50.441 13.9724 52.0104 15.4319 53.3372 15.3903C55.8749 19.8604 56.3992 22.8559 56.2726 27.822C53.9186 27.3814 51.272 26.9748 48.9055 27.5767C48.8609 26.3951 49.708 23.6613 49.8774 22.2513C50.2644 19.025 49.8988 16.2918 49.5118 13.1012Z" fill="#FFFEFC"/>
<path d="M2.12256 36.632C2.12096 35.5014 2.8195 34.5454 3.36949 33.5865C5.31444 30.1959 10.5767 27.9736 14.1641 30.2976L14.0935 30.5915L13.7732 30.4198C11.7756 29.359 11.9713 29.8408 9.82978 29.7616L9.44796 30.0686C11.1388 31.6887 10.9403 31.9823 13.1577 31.988L13.1563 32.0807C9.94606 32.1825 9.50449 32.7552 6.50967 33.3359C5.49813 34.8336 4.74181 37.9902 2.12256 36.632Z" fill="#FCFBF5"/>
<path d="M17.1697 12.2694C19.1256 11.6297 18.659 9.3378 19.2538 8.63098C19.8111 8.63875 20.148 8.90891 20.6404 9.19125C20.1977 10.3799 18.132 12.0937 16.9737 13.9071C16.2919 14.2552 16.6313 14.2112 15.9365 14.1331C16.1075 13.4073 16.6238 12.7651 17.1697 12.2694Z" fill="#465762"/>
<path d="M14.781 14.9655C15.1378 15.2451 15.0048 15.0749 15.1228 15.5266C14.7369 16.4619 14.0501 16.7529 13.1502 17.1502L12.9244 17.0296L12.8567 16.7962C13.2988 16.1305 14.1473 15.5003 14.781 14.9655Z" fill="#465762"/>
<path d="M34.5829 44.1355C35.6405 45.345 36.3182 46.0232 37.5594 47.0684L35.1179 49.5137C34.5437 50.0964 34.3404 50.1038 34.2548 50.7727C34.5544 51.3031 34.5134 51.292 35.0198 51.6216C35.8652 52.496 37.6236 54.2199 38.3191 55.0934C38.5955 55.4501 38.756 55.7237 39.1109 55.9886C39.942 56.4636 41.2153 57.975 41.9358 58.7519C41.3294 59.3576 39.571 61.0491 39.1448 61.6371C38.8898 61.8508 38.3227 62.3134 38.1711 62.58C37.2491 63.5953 36.4911 64.3917 35.4996 65.3381L33.0528 63.168L32.3573 63.1839L32.104 63.454C32.3733 64.5523 34.0033 64.9867 34.3422 66.1115C33.8285 67.0685 32.4803 68.3698 31.676 69.2085C30.9341 68.4969 29.4611 67.1885 29.0259 66.3375L29.247 65.6771C29.5163 65.1226 30.3884 64.1956 30.8235 63.673L30.4116 63.394C29.2399 63.7507 29.2381 64.7042 27.9282 64.9867L27.527 65.1121C26.8687 64.7925 25.1747 63.0038 24.5753 62.4087C25.5168 61.48 26.4694 60.5618 27.4332 59.656C28.7033 59.5801 29.1329 61.5065 30.4651 61.7819C31.0518 60.2246 28.6735 60.2934 28.2462 58.563C28.3957 57.749 29.7428 56.3771 30.3224 55.7555L30.1584 55.5401C29.4379 55.6143 28.3051 57.0198 27.3536 57.3076C25.9767 57.7243 24.7185 55.8314 24.3272 54.8144C24.0114 54.3924 24.0687 54.629 24.079 54.1118C24.9281 52.9704 25.8319 52.1618 27.0184 51.3578L27.0594 51.0193C27.5148 50.4483 27.3313 50.633 28.0711 50.3305C29.0687 49.1987 29.8659 48.5335 31.0215 47.5398L31.2123 47.579C31.7545 47.3894 31.9417 47.0117 32.2948 46.5415C32.8816 45.7257 33.8464 44.8561 34.5829 44.1355Z" fill="#4F5051"/>
<path d="M39.111 55.9885C39.9421 56.4635 41.2154 57.975 41.9359 58.7519C41.3295 59.3575 39.5711 61.0491 39.1449 61.6371C38.8899 61.8507 38.3228 62.3133 38.1712 62.58C37.2313 61.6106 36.2719 60.6606 35.291 59.7301C35.5532 59.2586 35.6673 58.8984 36.1488 58.6954C36.8854 58.2769 38.4512 56.6436 39.111 55.9885Z" fill="#FFFEFC"/>
<path d="M35.291 59.7301C35.5532 59.2587 35.6673 58.8985 36.1488 58.6954C37.1743 59.6489 38.173 60.6306 39.1449 61.6371C38.8899 61.8508 38.3228 62.3134 38.1712 62.58C37.2313 61.6106 36.2719 60.6607 35.291 59.7301Z" fill="#4F5051"/>
<path d="M27.0184 51.3578C27.861 52.3994 29.0723 53.5547 30.0335 54.5248C29.0741 55.4836 28.1119 56.4724 27.0961 57.3711C26.2968 56.6277 25.1378 55.4818 24.3272 54.8144C24.0114 54.3924 24.0687 54.629 24.079 54.1118C24.9281 52.9704 25.8319 52.1617 27.0184 51.3578Z" fill="#FFFEFC"/>
<path d="M32.2539 54.38C33.1652 53.4498 34.0872 52.5304 35.0199 51.6216C35.8652 52.496 37.6236 54.2198 38.3192 55.0933L35.4889 57.53C34.4189 56.4724 33.34 55.4218 32.2539 54.38Z" fill="#FFFEFC"/>
<path d="M31.0217 47.5398C31.9455 48.4423 33.1742 49.7125 34.1408 50.5177L31.2268 53.2874L28.0713 50.3305C29.0689 49.1987 29.8661 48.5335 31.0217 47.5398Z" fill="#FFFEFC"/>
<path d="M35.2911 59.7302C36.2719 60.6608 37.2314 61.6107 38.1712 62.5801C37.2492 63.5954 36.4913 64.3917 35.4997 65.3381L33.0529 63.1681L32.6624 62.7072C32.6909 61.7643 34.3512 60.7261 35.1751 59.8556L35.2911 59.7302Z" fill="#FFFEFC"/>
<path d="M27.4333 59.656C28.1705 60.4576 29.5325 61.7996 30.3921 62.4529C29.8714 62.9773 28.3255 64.4641 27.9284 64.9867L27.5271 65.1121C26.8689 64.7925 25.1748 63.0038 24.5754 62.4088C25.5169 61.48 26.4696 60.5618 27.4333 59.656Z" fill="#FFFEFC"/>
<path d="M29.2473 65.6771C29.8447 65.5341 30.9379 64.194 31.4301 63.6625C32.1827 64.3935 33.415 65.6789 34.3424 66.1115C33.8288 67.0685 32.4805 68.3699 31.6762 69.2086C30.9343 68.497 29.4613 67.1886 29.0261 66.3375L29.2473 65.6771Z" fill="#FFFEFC"/>
<path d="M34.583 44.1355C35.6405 45.345 36.3182 46.0232 37.5595 47.0684L35.118 49.5137C34.2531 48.5404 33.2044 47.4928 32.2949 46.5415C32.8817 45.7257 33.8465 44.8561 34.583 44.1355Z" fill="#FFFEFC"/>
<path d="M31.0216 55.7767C31.6957 55.8668 33.7216 58.0633 34.3761 58.6955C33.4238 59.6278 32.5464 60.3976 31.5352 61.2699C31.109 61.224 28.9618 58.9797 28.2256 58.3971C29.017 57.7596 30.1959 56.5342 31.0216 55.7767Z" fill="#FFFEFC"/>
<path d="M36.5001 83.751C37.4043 84.5844 38.4226 85.3454 38.9879 86.3872C39.0111 87.0635 39.0575 86.7262 38.7061 87.4184C38.1354 89.3483 37.6664 88.7056 36.3949 89.6556C35.2678 90.496 34.2869 93.1428 32.4697 92.8586C31.8169 92.4842 30.9449 91.3171 30.7416 90.6426C30.5971 90.3742 30.0692 89.9416 29.8142 89.7068C30.5757 89.0234 31.767 87.881 32.6159 87.4413C33.6592 87.3372 33.6289 87.2701 34.1246 86.5055L34.0604 86.0588C34.7577 85.16 35.6298 84.4943 36.5001 83.751Z" fill="#FFFEFC"/>
<path d="M36.5002 83.751C37.4044 84.5844 38.4227 85.3454 38.988 86.3872C39.0112 87.0635 39.0576 86.7262 38.7063 87.4184C38.0214 88.0205 37.4775 88.6191 36.8551 89.2795C36.0865 88.4443 34.9808 87.1694 34.1248 86.5055L34.0605 86.0588C34.7578 85.16 35.6299 84.4943 36.5002 83.751Z" fill="#FFFEFC"/>
<path d="M34.1248 86.5055C34.9808 87.1694 36.0865 88.4442 36.8551 89.2794C37.4775 88.6191 38.0214 88.0205 38.7063 87.4184C38.1356 89.3483 37.6666 88.7056 36.395 89.6555C35.2679 90.496 34.2871 93.1428 32.4698 92.8585C31.8171 92.4842 30.945 91.3171 30.7417 90.6426C31.5728 91.2994 32.2059 92.0216 32.9281 92.7914C33.8323 91.9121 34.7472 90.9463 35.6335 90.0387C34.7258 89.3977 33.481 88.2165 32.616 87.4413C33.6593 87.3371 33.629 87.27 34.1248 86.5055Z" fill="#4F5051"/>
<path d="M15.311 48.5917C16.1278 49.287 16.9179 50.0127 17.679 50.7672C17.852 51.0575 18.5461 51.99 18.837 52.0924C19.9031 52.8702 20.6321 53.6411 21.5636 54.569C20.821 55.3618 19.9393 56.3506 19.1496 57.0675C18.2174 56.25 17.154 55.3565 16.2983 54.4772C16.1565 54.1424 15.4387 53.6633 15.1293 53.4875C14.4263 52.8267 13.5009 51.7588 12.8252 51.0236L15.311 48.5917Z" fill="#FFFEFC"/>
<path d="M18.837 52.0923C19.9031 52.8701 20.6321 53.641 21.5636 54.5689C20.821 55.3617 19.9393 56.3505 19.1496 57.0674C18.2174 56.2499 17.154 55.3564 16.2983 54.4771C16.965 53.9814 18.1964 52.7184 18.837 52.0923Z" fill="#FAF7F2"/>
<path d="M17.6791 50.7672C17.8521 51.0575 18.5462 51.99 18.837 52.0924C18.1964 52.7185 16.965 53.9815 16.2984 54.4772C16.1566 54.1424 15.4388 53.6633 15.1294 53.4875C15.9028 52.7423 16.9231 51.5777 17.6791 50.7672Z" fill="#4F5051"/>
<path d="M35.4837 67.4146C36.5127 68.2815 38.2158 70.0843 39.1628 71.0731C38.1587 72.1908 37.5096 72.8812 36.3968 73.8788C35.53 73.1355 33.6093 71.0819 32.6624 70.1779C33.3775 69.6129 34.781 68.1226 35.4837 67.4146Z" fill="#FFFEFC"/>
<path d="M31.7332 71.6488C32.3859 71.8077 34.7026 74.3451 35.3303 74.986C34.4208 75.9148 33.6361 76.6158 32.6534 77.4739C31.3801 76.4357 30.2798 75.3462 28.9458 74.3592C29.7626 73.7306 30.9682 72.4293 31.7332 71.6488Z" fill="#FFFEFC"/>
<path d="M23.9441 71.8677C24.5105 72.2826 26.4104 74.1419 27.0278 74.7175C26.0453 75.7787 25.2 76.6475 24.1537 77.6451C23.0858 76.5557 21.9614 75.5721 20.8457 74.4156C21.7939 73.7093 22.9553 72.6534 23.9441 71.8677Z" fill="#FAF7F2"/>
<path d="M19.1171 59.6754C20.213 60.5265 21.298 61.5877 22.3178 62.5429C21.4418 63.7295 20.9057 64.3793 19.9027 65.4634C18.8022 64.4605 17.4973 63.4099 16.344 62.377L19.1171 59.6754Z" fill="#FAF7F2"/>
<path d="M39.3732 63.7437C40.3362 64.5188 41.8058 66.1486 42.7064 67.0914C42.0037 67.9178 40.9729 68.9349 40.2043 69.7383C39.0754 68.5517 37.9108 67.434 36.7356 66.2933C37.5328 65.6082 38.5992 64.5029 39.3732 63.7437Z" fill="#FFFEFC"/>
<path d="M42.8133 59.9915C43.3305 60.3499 45.6435 62.9844 46.1928 63.5953C45.4991 64.3722 44.602 65.2498 43.8637 66.009C43.3626 65.7459 41.1708 63.3092 40.3826 62.6383C41.4134 61.6812 41.927 61.0809 42.8133 59.9915Z" fill="#FFFEFC"/>
<path d="M28.1002 75.8776C28.6568 76.2643 30.7417 78.1818 31.3819 78.7451C30.5223 79.6686 29.5254 80.5938 28.6115 81.4767C28.1367 81.2754 26.0405 79.3878 25.3333 78.8334C26.3054 77.8375 27.1894 76.9282 28.1002 75.8776Z" fill="#FFFEFC"/>
<path d="M22.6925 55.6001C23.3644 56.0592 25.4362 58.0668 26.113 58.7078C25.2784 59.3982 24.3136 60.3587 23.5132 61.118C22.8906 61.0173 20.8454 58.7537 20.2571 58.1463C21.1263 57.334 21.891 56.4759 22.6925 55.6001Z" fill="#FAF7F2"/>
<path d="M23.0769 47.6675C23.657 48.093 25.2383 49.7484 25.8311 50.3425L22.7976 53.2247C22.1306 52.7448 20.6522 51.3766 19.9861 50.7937C21.1292 49.7157 22.0145 48.8233 23.0769 47.6675Z" fill="#FFFEFC"/>
<path d="M39.9688 72.1678C40.4004 72.3797 42.4138 74.6805 42.9364 75.2314L40.511 77.9435C39.6229 77.1631 38.3941 75.8176 37.3972 74.8941L39.9688 72.1678Z" fill="#FFFEFC"/>
<path d="M32.4394 79.967C33.0779 80.1383 34.8898 82.0718 35.473 82.6527L32.6677 85.1406C31.9686 84.6868 30.4099 83.1824 29.6716 82.5344C30.5705 81.6533 31.4942 80.7987 32.4394 79.967Z" fill="#FAF7F2"/>
<path d="M27.8021 67.7518C28.7746 68.3857 29.8464 69.5282 30.6953 70.3669C29.9052 71.2497 28.8263 72.288 27.9767 73.1496C27.0461 72.2686 26.0091 71.3945 25.0378 70.5487C25.9729 69.6288 26.8943 68.6983 27.8021 67.7518Z" fill="#FFFEFC"/>
<path d="M36.2221 76.0648C36.7464 76.4091 38.824 78.5615 39.3251 79.0701C38.4388 79.8629 37.597 80.5921 36.7892 81.4661C36.3736 81.2101 34.3031 79.063 33.8252 78.5845C34.6509 77.7687 35.432 76.9141 36.2221 76.0648Z" fill="#FFFEFC"/>
<path d="M23.6823 63.8567C24.1667 64.2134 25.8268 65.9296 26.4521 66.5088C25.5879 67.4429 24.7081 68.361 23.8129 69.2669L21.0005 66.6377C22.1024 65.6913 22.7211 64.9567 23.6823 63.8567Z" fill="#FAF7F2"/>
<path d="M38.5119 48.3275C39.1432 48.7571 40.9872 50.9692 41.5775 51.6513C40.8713 52.353 40.174 53.0607 39.482 53.7748C38.4459 52.6897 37.2296 51.5687 36.1382 50.5218C37.1297 49.7473 37.6309 49.234 38.5119 48.3275Z" fill="#FFFEFC"/>
<path d="M40.1919 80.3008C40.8375 80.4615 42.4176 82.1742 42.999 82.7498C42.2749 84.0494 42.0145 84.3884 40.9641 85.3702C40.0635 84.7998 38.5887 83.3413 37.7915 82.5874L40.1919 80.3008Z" fill="#FFFEFC"/>
<path d="M43.2234 68.4475C43.6853 68.6771 45.5186 70.8577 46.0857 71.4633C45.5258 72.4892 45.1709 73.1178 44.3006 73.9142C42.9577 72.7982 42.2372 72.0566 41.0334 70.7782C41.8467 70.0278 42.4922 69.2756 43.2234 68.4475Z" fill="#FFFEFC"/>
<path d="M24.3585 87.3636C25.0794 87.376 26.8907 89.3289 27.7079 90.0105C27.0163 90.6373 26.314 91.2535 25.6015 91.8556C25.2682 92.2194 25.2985 92.2406 24.8397 92.3959C23.9328 91.9792 23.2361 89.6485 22.845 88.6279L24.3585 87.3636Z" fill="#FAF7F2"/>
<path d="M27.8295 44.2782C27.9531 44.3614 29.5289 45.9724 29.9747 46.3526C29.3345 46.9589 27.379 48.9697 26.6989 49.0647C25.6781 48.0289 25.1789 47.5005 24.0049 46.6617C25.8163 46.0303 26.5269 45.5903 27.8295 44.2782Z" fill="#FFFEFC"/>
<path d="M28.729 91.2659C29.29 91.3859 31.0627 93.4359 31.5888 93.9939C30.8505 94.7214 29.9802 95.4877 29.2098 96.1975C28.3857 95.274 27.1562 94.1705 26.1643 93.4236C27.0164 92.7367 27.8885 91.9757 28.729 91.2659Z" fill="#FFFEFC"/>
<path d="M28.7188 83.8499C29.6094 84.6956 30.5171 85.522 31.4409 86.3307C30.4493 87.1641 29.843 87.8051 28.9513 88.7515C27.9294 87.8298 27.0235 87.0105 25.9404 86.1629C26.9748 85.4496 27.7864 84.6868 28.7188 83.8499Z" fill="#FAF7F2"/>
<path d="M19.8452 68.2744C20.5551 68.2991 22.1625 70.1425 22.7553 70.7464C22.014 71.3432 21.2767 71.9436 20.5434 72.5492L19.1226 73.6422C18.7753 72.445 18.464 71.239 18.189 70.026L19.8452 68.2744Z" fill="#FAF7F2"/>
<path d="M24.1117 80.1047C24.376 80.2442 26.808 82.4161 27.3155 82.8398C26.4757 83.6644 25.9523 84.0794 25.0269 84.7962L24.8304 84.8704C24.1836 84.5208 22.6138 82.8875 21.9973 82.2819C22.9279 81.482 23.3536 81.0653 24.1117 80.1047Z" fill="#FAF7F2"/>
<path d="M32.6873 102.22C33.2758 102.566 34.7881 103.958 35.382 104.48C34.6097 105.296 33.8269 106.103 33.0368 106.903C32.7854 106.767 30.9021 104.823 30.3867 104.357L32.6873 102.22Z" fill="#FFFEFC"/>
<path d="M37.0673 91.2483C37.6095 91.6685 38.667 92.8286 39.1931 93.376C38.2889 94.4513 37.7343 94.9863 36.691 95.9451C36.0294 95.8021 34.9754 94.5943 34.4351 94.0575C35.448 93.0705 36.206 92.3607 37.0673 91.2483Z" fill="#FFFEFC"/>
<path d="M39.687 46.5896C41.4829 46.7346 41.8485 46.8103 43.6408 46.6394L45.2137 48.2732L44.3202 49.2385L42.9238 50.6202C41.8182 49.2968 40.7392 47.9531 39.687 46.5896Z" fill="#FFFEFC"/>
<path d="M30.6773 40.9823C31.6279 40.9025 33.1509 40.9931 33.1652 42.3207C33.1759 43.4914 32.1683 44.2369 31.3729 44.9721L31.0215 45.0004C30.2279 44.3709 29.6858 43.6291 29.042 42.8462C29.6751 41.9266 29.8017 41.7366 30.6773 40.9823Z" fill="#FFFEFC"/>
<path d="M45.8379 57.1646C46.2927 57.47 48.3685 59.626 48.8893 60.1539C48.5451 60.9344 48.2972 61.6813 47.6534 62.2145C46.4603 61.1745 45.2869 60.0003 44.1455 58.8967C44.7055 58.3546 45.2904 57.726 45.8379 57.1646Z" fill="#FFFEFC"/>
<path d="M29.0583 98.4894C29.6183 98.6748 31.1288 100.463 31.6299 101.013C30.9986 101.719 30.1551 102.538 29.4792 103.229L26.8826 100.585C27.5629 99.9938 28.3961 99.1356 29.0583 98.4894Z" fill="#FFFEFC"/>
<path d="M45.8895 49.915C46.3639 50.1691 48.026 52.1986 48.5093 52.7504C47.9654 53.3981 47.1397 54.1773 46.528 54.7914C46.1927 54.5124 44.3148 52.2375 43.8672 51.7254C44.5877 51.1401 45.2136 50.5454 45.8895 49.915Z" fill="#FFFEFC"/>
<path d="M36.3217 99.0369C38.5028 99.4677 38.8523 102.095 37.258 103.402L36.8585 103.34C35.9507 102.586 35.0377 101.843 34.1174 101.106C34.829 100.345 35.5441 99.7273 36.3217 99.0369Z" fill="#FFFEFC"/>
<path d="M33.1226 95.1805C33.7182 95.5831 34.7686 96.782 35.2911 97.3577C34.6224 98.177 33.802 98.9238 33.0387 99.6655C32.1203 98.7897 31.4676 98.1699 30.4653 97.4C31.3428 96.6496 32.2273 95.9098 33.1226 95.1805Z" fill="#FFFEFC"/>
<path d="M42.6439 52.9329C43.1861 53.3201 44.5664 54.9839 45.0818 55.579L43.1112 57.6343C42.1588 56.6137 41.4794 55.9039 40.4343 54.9857C41.3242 54.2847 41.8503 53.7368 42.6439 52.9329Z" fill="#FFFEFC"/>
<path d="M32.814 109.774C33.7164 109.953 34.6046 110.975 35.2787 111.639C34.576 112.794 34.3049 113.083 33.3704 113.977C32.5233 113.281 31.7636 112.485 30.9861 111.709L32.814 109.774Z" fill="#FFFEFC"/>
<path d="M11.0958 40.7529C13.0096 41.1161 14.9032 43.3997 15.9459 44.9675C16.24 45.4095 15.9543 45.7999 15.7774 46.2327C14.6736 45.7826 12.008 42.9479 11.1472 41.8415C10.8146 41.4138 10.9738 41.1891 11.0958 40.7529Z" fill="#FAF7F2"/>
<path d="M29.4149 105.886C30.0694 106.317 31.0681 107.549 31.6352 108.196C31.1448 108.9 30.8558 109.645 29.9838 109.661C29.2633 109.984 29.1563 109.982 28.447 109.62C27.3829 108.208 28.3994 106.891 29.4149 105.886Z" fill="#FFFEFC"/>
<path d="M49.1781 47.2776C49.9325 47.4729 50.7332 48.8244 51.2896 49.569C50.9561 50.5759 50.883 51.1927 50.0181 51.6447C49.3457 51.0638 48.0688 49.569 47.4197 48.8461C48.0153 48.3338 48.6021 47.8108 49.1781 47.2776Z" fill="#FFFEFC"/>
<path d="M17.1925 45.8503C18.8186 46.4973 19.9236 46.6041 21.6447 46.8429C20.9553 47.2951 20.3696 47.6719 19.7171 48.1823C19.4023 48.9324 19.5605 48.9195 19.0089 49.1796C17.6979 48.9714 17.0855 48.3974 16.6318 47.1218C16.4624 46.6458 16.9254 46.2128 17.1925 45.8503Z" fill="#FFFEFC"/>
<path d="M51.5643 40.8163C52.2527 40.7183 52.4595 40.6524 52.9482 40.9655L52.9571 41.3755C52.3026 42.5806 51.1398 43.3889 50.0556 44.2116C49.4082 44.5139 49.7238 44.496 49.0854 44.3428C48.6627 42.9487 50.5032 41.4352 51.5643 40.8163Z" fill="#FFFEFC"/>
<path d="M24.6565 94.4265C25.6188 94.7567 26.9415 96.1675 27.464 97.0733C27.4366 97.6825 27.5151 97.3753 26.9934 97.9615C26.7238 98.2299 26.4814 98.4382 26.1945 98.689C24.6386 98.6113 24.6249 95.5831 24.6565 94.4265Z" fill="#FFFEFC"/>
<path d="M19.5781 76.0913C20.5408 76.5857 22.0866 78.2049 22.9294 79.0189L21.9359 80.126C21.631 80.4315 21.3836 80.6486 21.063 80.9329L20.8802 80.8658C20.4183 79.8152 19.7174 77.2355 19.5781 76.0913Z" fill="#FAF7F2"/>
<path d="M14.6401 55.7678C15.2884 56.068 17.0814 57.6783 17.8103 58.2469L16.5721 59.5747L15.3563 60.6483C15.0936 59.0256 14.8549 57.3976 14.6401 55.7678Z" fill="#FAF7F2"/>
<path d="M40.5269 88.0699C40.6143 88.0805 40.7035 88.0911 40.7909 88.1017C41.0227 88.1829 41.2046 88.3613 41.2866 88.5891C41.5951 89.4437 40.9353 91.423 40.0614 91.7426L38.3833 90.1535C39.0628 89.4613 39.8243 88.748 40.5269 88.0699Z" fill="#FFFEFC"/>
<path d="M43.7175 76.7694L44.1259 76.9318C44.3738 77.7829 44.0135 79.5945 43.293 80.1578L42.8775 80.0519L41.4009 78.6411C42.1285 78.1255 43.0131 77.3574 43.7175 76.7694Z" fill="#FFFEFC"/>
<path d="M36.2132 105.932L36.4093 106.229C36.4272 107.366 36.5288 108.61 36.0955 109.658L35.8048 109.744L35.3482 109.375C34.9309 108.978 34.3995 108.536 33.959 108.15L36.2132 105.932Z" fill="#FFFEFC"/>
<path d="M32.771 116.482C33.463 117.137 33.7715 119.701 33.0564 120.268L32.7015 120.141C32.1807 119.565 31.783 119.076 31.3069 118.465L32.771 116.482Z" fill="#FFFEFC"/>
<path d="M47.5214 44.6702C48.1884 44.8466 47.9316 44.6755 48.3614 45.1266C48.2259 46.1445 47.1059 46.8046 46.257 47.4665L45.0176 46.0455C45.8076 45.5551 46.694 45.1093 47.5214 44.6702Z" fill="#FFFEFC"/>
<path d="M47.0362 64.7783L47.2181 65.0997C47.0755 66.3286 46.8918 67.4004 46.4424 68.5605L46.1677 68.647L45.9466 68.3751L44.7161 67.1126C45.4401 66.4752 46.3479 65.4899 47.0362 64.7783Z" fill="#FAF7F2"/>
<path d="M49.6509 54.1882L49.8863 54.4224C49.8292 55.5542 49.8399 56.407 49.4101 57.4523L49.1141 57.5495L48.7913 57.2669L47.4092 55.9886C48.135 55.4412 48.9375 54.7649 49.6509 54.1882Z" fill="#FFFEFC"/>
<path d="M11.2451 45.1174C12.0637 45.308 13.5248 46.7474 13.6587 47.6188L13.2787 47.9964C12.9907 48.366 12.99 48.3702 12.6176 48.6551L12.2734 48.5251C11.8811 47.8499 11.5511 46.1106 11.2451 45.1174Z" fill="#FAF7F2"/>
<path d="M29.6127 113.399C31.232 113.936 31.7581 114.628 30.8753 116.134L30.5418 116.313L30.2672 116.175C29.8624 115.465 29.511 114.206 29.6127 113.399Z" fill="#FAF7F2"/>
<path d="M52.8396 43.7949C52.8913 43.8512 52.9716 44.0748 53.0072 44.158C52.8253 45.0698 52.6363 46.4892 51.9265 47.0574C51.3915 46.3238 51.4022 46.5486 51.3005 45.752C51.5056 45.0194 52.2743 44.3785 52.8396 43.7949Z" fill="#FAF7F2"/>
<path d="M31.3872 121.571C33.2847 121.956 32.6552 123.956 32.4144 125.263L32.3342 125.286C31.9472 124.845 31.5352 122.295 31.3872 121.571Z" fill="#FCFBF5"/>
<path d="M16.9504 65.1757C17.5987 65.6047 18.0743 65.8325 18.4808 66.4893C18.5619 67.2062 18.5583 66.9555 18.1656 67.6971C17.7817 67.8013 17.9825 67.7942 17.5629 67.6989C17.1254 67.005 16.7744 65.995 16.9504 65.1757Z" fill="#FCFBF5"/>
<path d="M26.3511 102.733C27.4766 103.195 28.237 103.993 28.1095 105.224C27.6581 105.236 27.6888 105.242 27.2729 105.069C26.6732 104.376 26.3611 103.66 26.3511 102.733Z" fill="#FAF7F2"/>
<path d="M38.7723 95.8302C39.8744 96.141 38.9631 97.6259 38.5101 98.1662C37.8824 97.5994 37.9983 97.8643 37.8574 97.1421C38.0411 96.5224 38.33 96.3034 38.7723 95.8302Z" fill="#FAF7F2"/>
</svg>
